<?xml version="1.0" standalone="no"?>
<!DOCTYPE svg PUBLIC "-//W3C//DTD SVG 1.1//EN" "http://www.w3.org/Graphics/SVG/1.1/DTD/svg11.dtd" >
<svg xmlns="http://www.w3.org/2000/svg">
<metadata>
This is a custom SVG webfont generated by Font Squirrel.
</metadata>
<defs>
<font id="webfonttYQJ7lut" horiz-adv-x="796" >
<font-face units-per-em="2048" ascent="1638" descent="-410" />
<missing-glyph horiz-adv-x="467" />
<glyph unicode=" "  horiz-adv-x="467" />
<glyph unicode="&#x09;" horiz-adv-x="467" />
<glyph unicode="&#xa0;" horiz-adv-x="467" />
<glyph unicode="!" horiz-adv-x="591" d="M344 129q0 -58 -41 -104t-91 -46q-44 0 -72 31t-28 77q0 57 41 102.5t95 45.5q41 0 68.5 -31t27.5 -75zM314 400h-100l90 979l26 201h211l-30 -203z" />
<glyph unicode="&#x22;" horiz-adv-x="734" d="M516 1534l5 41h212l-5 -41l-123 -476h-100zM200 1534l6 41h212l-6 -41l-122 -476h-101z" />
<glyph unicode="#" horiz-adv-x="1208" d="M709 430h-254l-93 -367h-130l91 367h-184l19 95h184l89 348h-188l21 93h188l97 368h130l-97 -368h254l95 366h132l-97 -366h178l-23 -93h-174l-89 -348h184l-17 -95h-188l-89 -367h-132zM474 525h250l91 348h-250z" />
<glyph unicode="$" horiz-adv-x="1118" d="M516 601q-78 33 -135 67.5t-106 79.5t-73.5 103t-24.5 128q0 135 118 229.5t335 95.5l25 152h85l-26 -154q43 0 91 -7.5t85.5 -18.5t69.5 -22t49.5 -18t17.5 -6l-51 -117l-46 15q-46 15 -117 30.5t-120 15.5l-74 -446q108 -45 172 -80t109.5 -81t62.5 -100.5t17 -133.5 q0 -122 -68.5 -207t-176 -123.5t-241.5 -38.5l-25 -152h-91l26 155q-21 0 -45 3t-47 8.5t-46.5 12.5t-45 15t-40.5 16l-35 15q-16 7 -27 13l-18 8l-7 3l64 131q-2 -2 38.5 -23t107 -43t122.5 -21zM598 575l-77 -472q158 0 238.5 53.5t80.5 177.5q0 44 -9 75.5t-34.5 62.5 t-74.5 56t-124 47zM537 754l71 422q-130 -3 -210 -49.5t-80 -140.5q0 -58 14 -92.5t62 -69t143 -70.5z" />
<glyph unicode="%" horiz-adv-x="1702" d="M1158 88q54 0 96 24t67.5 65.5t40.5 85t22 93.5q14 96 14 154q0 85 -33 135t-116 50q-54 0 -94.5 -24t-65.5 -69t-39.5 -95t-23.5 -115q-9 -72 -9 -113q0 -191 141 -191zM676 1176q8 55 8 108q0 104 -38 148t-111 44q-181 0 -224 -300q-9 -63 -9 -112q0 -198 147 -198 q184 0 227 310zM363 -51l861 1710l99 -45l-867 -1706zM1510 502q0 -92 -22 -182.5t-63.5 -168.5t-109.5 -126t-152 -48q-74 0 -128 25.5t-82.5 70t-41 95t-12.5 110.5q0 30 3.5 67t13.5 88.5t25.5 100t43.5 98t64 85.5t90 59t118 23q71 0 122 -24t78.5 -67.5t40 -94 t12.5 -111.5zM182 1071q0 36 5.5 79.5t18.5 104.5t39.5 115.5t64 102.5t98 77t134.5 29q71 0 122.5 -24.5t79.5 -68t40.5 -94t12.5 -111.5q0 -56 -9.5 -119t-35.5 -136t-64.5 -130t-104.5 -95.5t-149 -38.5q-72 0 -123.5 27.5t-78 74.5t-38.5 98t-12 109z" />
<glyph unicode="&#x26;" horiz-adv-x="1541" d="M736 1310q-63 0 -110.5 -18.5t-72.5 -44.5t-40 -59t-19 -55t-4 -40q0 -20 5.5 -40.5t15.5 -38.5t22 -35.5t26 -32.5l28 -28q14 -13 26 -23t22 -17t15 -11l6 -4q104 32 160.5 66.5t81.5 77t35 112.5q2 11 2 33q0 76 -53.5 117t-145.5 41zM335 1088q0 34 11 76t41 93 t74.5 91.5t121.5 68.5t172 28q161 0 245.5 -76t84.5 -201q0 -29 -4 -53q-19 -139 -101 -219t-254 -135l387 -397q101 185 162 390l134 -2q-35 -124 -86.5 -243.5t-86.5 -177.5l-34 -58l194 -178l-94 -102l-171 177q-71 -121 -194.5 -165t-338.5 -44q-221 0 -354.5 95 t-133.5 261q0 102 42 198t134.5 177t223.5 120q-7 5 -19 14.5t-42 40t-53 61t-42 75t-19 85.5zM584 716q-140 -31 -229.5 -130.5t-89.5 -231.5t95 -196.5t257 -64.5q86 0 139 5t106 21.5t94 49.5t83 87z" />
<glyph unicode="'" horiz-adv-x="515" d="M516 1572h-240l-29 -542h98z" />
<glyph unicode="(" horiz-adv-x="794" d="M272 696q19 134 56 256.5t81.5 211t94 164t95 124.5t82.5 83.5t59 49.5l22 15l72 -100q-12 -9 -33.5 -27.5t-78.5 -88.5t-105 -154t-98 -228t-73 -308q-17 -118 -17 -228q0 -115 18.5 -216.5t44.5 -163.5t52.5 -108t45.5 -65l18 -19l-100 -98q-10 8 -27 23t-60.5 74 t-77 129.5t-60.5 191.5t-27 258q0 106 16 224z" />
<glyph unicode=")" horiz-adv-x="794" d="M636 696q-19 -134 -56 -256.5t-81 -210.5t-93.5 -163t-94.5 -123.5t-82 -82.5t-59 -49l-22 -15l-72 98l18 14q11 9 44 43.5t64.5 75t72.5 109.5t75 146t64.5 185.5t47.5 226.5q17 120 17 231q0 84 -10 161.5t-25.5 133.5t-34.5 104.5t-37.5 79.5t-34 53.5t-25.5 32.5 l-10 10l100 100q10 -8 27 -23.5t60 -74.5t76 -130t60 -192t27 -258q0 -108 -16 -226z" />
<glyph unicode="*" horiz-adv-x="864" d="M492 1063l-170 -247l-88 56l198 272l-290 -8l16 112l288 -12l-110 274l106 56l90 -274l182 278l88 -56l-204 -278l294 12l-16 -112l-288 8l112 -272l-114 -56z" />
<glyph unicode="+" horiz-adv-x="986" d="M866 518h-290l-48 -344h-134l50 344h-290l18 134h290l50 344h130l-48 -344h292z" />
<glyph unicode="," horiz-adv-x="573" d="M94 0l41 293h245l-20 -291q-4 -56 -23 -98t-54 -71.5t-76 -49t-100 -36.5l-35 94q73 26 103.5 60.5t39.5 98.5h-121z" />
<glyph unicode="-" d="M704 508h-546l18 130h546z" />
<glyph unicode="." horiz-adv-x="493" d="M328 129q0 -58 -41 -104t-91 -46q-44 0 -72 31t-28 77q0 57 41 102.5t95 45.5q41 0 68.5 -31t27.5 -75z" />
<glyph unicode="/" horiz-adv-x="946" d="M96 -96l836 1826l144 -58l-850 -1834z" />
<glyph unicode="0" horiz-adv-x="1303" d="M1000 592q9 68 9 131q0 347 -299 347q-79 0 -144.5 -25.5t-111.5 -69t-80.5 -105.5t-54.5 -130.5t-31 -147.5q-10 -73 -10 -134q0 -73 14.5 -132.5t47 -109.5t92 -78t142.5 -28t151 28.5t113.5 75t80 111t53 129.5t28.5 138zM730 1210q99 0 177.5 -28t129.5 -74 t84.5 -111t47.5 -134.5t14 -147.5q0 -63 -9 -125q-12 -91 -42 -177t-82 -167t-120.5 -142t-165 -97.5t-208.5 -36.5q-96 0 -173 27.5t-127.5 74.5t-84.5 112t-48.5 136t-14.5 150q0 58 8 120q13 90 41 174.5t79 167t118 143t164.5 98t211.5 37.5z" />
<glyph unicode="1" horiz-adv-x="831" d="M303 0l148 1056l-220 -90l-28 118l232 85l196 1l-164 -1170h-164z" />
<glyph unicode="2" horiz-adv-x="1102" d="M592 508q99 78 171 174t72 196q0 87 -62 134t-177 47q-63 0 -132.5 -16.5t-107.5 -32.5l-39 -17l-39 123q6 3 18 8.5t50 20t78 25t98.5 19.5t115.5 9q172 0 256.5 -86t84.5 -234q0 -237 -306 -466l-349 -262l522 2l-20 -152h-726l18 142q55 45 156 120z" />
<glyph unicode="3" horiz-adv-x="1072" d="M515 614q77 0 137 18.5t94.5 46.5t57 66t30 72.5t7.5 71.5q0 89 -59.5 128.5t-182.5 39.5q-68 0 -139.5 -16.5t-109.5 -32.5l-37 -16l-28 133q19 9 51 22.5t121.5 36t167.5 22.5q51 0 98.5 -7t99 -26.5t89 -50t62 -82t24.5 -117.5q0 -88 -32.5 -163t-81.5 -120t-103 -70 t-101 -25q42 -9 81 -27t81.5 -52t68.5 -93t26 -136q0 -87 -29 -160.5t-77.5 -123t-112.5 -84.5t-133 -51t-140 -16q-60 0 -119.5 10t-101.5 24t-75.5 28t-50.5 24l-16 10l63 123q18 -8 48.5 -20t116 -31.5t159.5 -19.5q86 0 148 26.5t94 70.5t46 90t14 97q0 204 -276 237z " />
<glyph unicode="4" horiz-adv-x="1219" d="M905 1208l150 -38l-136 -971h168l-20 -131h-168l-46 -326l-156 -28l52 354h-614l-8 136zM767 197l115 768l-587 -768h472z" />
<glyph unicode="5" horiz-adv-x="1220" d="M978 329q0 -240 -150 -387.5t-391 -147.5q-93 0 -175 18.5t-118 37.5l-35 18l14 140q14 -7 40.5 -18t114 -29.5t181.5 -18.5q175 0 275 100.5t100 269.5q0 228 -251 228q-82 0 -159 -19.5t-111 -36.5l-94 80l114 608h678l-18 -150h-548l-84 -410q3 1 46 18.5t74.5 28.5 t81.5 22t92 11q162 0 242.5 -95t80.5 -268z" />
<glyph unicode="6" horiz-adv-x="1200" d="M920 408q0 -71 -20.5 -142t-61.5 -135t-112 -104.5t-162 -40.5q-255 0 -255 298q0 57 10.5 129.5t21.5 109.5q33 35 136 84.5t213 49.5q100 0 165 -61.5t65 -187.5zM544 -156q109 0 201 36.5t153 95.5t104 135.5t62.5 154t19.5 153.5q0 170 -98.5 272t-276.5 102 q-203 0 -337 -144q29 94 81.5 175.5t113 138.5t132.5 101.5t137 70t130 39.5l-19 145q-111 -27 -214.5 -77t-199.5 -128.5t-172 -177.5t-130 -230.5t-75 -280.5q-10 -70 -10 -140q0 -207 100 -324t298 -117z" />
<glyph unicode="7" horiz-adv-x="1119" d="M1020 1170l34 -124l-750 -1282l-146 76l580 956l134 224h-206h-442l18 150h778z" />
<glyph unicode="8" horiz-adv-x="1318" d="M1137 1030q0 -64 -16 -119.5t-41 -94t-55.5 -70t-61 -50.5t-55.5 -31.5t-41 -17.5l-16 -5q9 -2 23.5 -7.5t51 -30t65 -57t51.5 -93.5t23 -135q0 -116 -42.5 -206t-116 -144t-164 -81.5t-193.5 -27.5q-83 0 -154 19t-128 56t-89.5 100t-32.5 144q0 31 4 59q10 69 33 128 t51.5 99t61.5 72.5t63.5 51.5t55.5 31.5t40 17.5l15 4l-7 2l-18 8q-11 4 -25.5 11.5t-30 19.5t-31.5 26.5t-30 35.5t-25 45t-17.5 56t-6.5 67q0 66 18 127.5t56.5 117t94 97t135.5 65.5t175 24q176 0 278 -83t102 -231zM566 9q74 0 130 13.5t103.5 46.5t72.5 96.5t25 155.5 q0 227 -246 261q-63 -9 -114.5 -29.5t-85 -46.5t-59 -60.5t-39 -66t-22 -67.5t-10.5 -61t-2 -50q0 -104 61.5 -148t185.5 -44zM741 1208q-71 0 -126 -18t-88.5 -46.5t-55 -69t-29.5 -80.5t-8 -85q0 -103 58 -149.5t179 -61.5q108 15 169 48q141 79 141 271q0 191 -240 191z " />
<glyph unicode="9" horiz-adv-x="1163" d="M320 749q0 55 12.5 112t40 113.5t68 100t101.5 70.5t134 27q255 0 255 -298q0 -57 -10.5 -129.5t-21.5 -109.5q-33 -35 -136 -84.5t-213 -49.5q-99 0 -164.5 61.5t-65.5 186.5zM696 1314q-109 0 -201 -36.5t-153 -95.5t-104 -135.5t-62.5 -154t-19.5 -153.5 q0 -170 98.5 -272t276.5 -102q205 0 338 144q-29 -94 -81.5 -175.5t-113.5 -138.5t-133 -101.5t-137 -70t-130 -39.5l20 -145q111 27 214.5 77t199.5 128.5t171.5 177.5t129.5 230.5t75 280.5q10 70 10 140q0 207 -100 324t-298 117z" />
<glyph unicode=":" horiz-adv-x="710" d="M198 264h258l-42 -264h-258zM288 876h258l-42 -264h-258z" />
<glyph unicode=";" horiz-adv-x="740" d="M184 0l41 293h245l-20 -291q-4 -56 -23 -98t-54 -71.5t-76 -49t-100 -36.5l-35 94q73 26 103.5 60.5t39.5 98.5h-121zM288 876h258l-42 -264h-258z" />
<glyph unicode="&#x3c;" horiz-adv-x="981" d="M857 855l-453 -278l377 -281l-29 -197l-512 382l26 185l620 383z" />
<glyph unicode="=" horiz-adv-x="917" d="M744 508h-547l18 131h547zM712 280h-547l18 131h547z" />
<glyph unicode="&#x3e;" horiz-adv-x="913" d="M281 842l358 -266l-434 -270l-29 -207l620 382l26 185l-512 383z" />
<glyph unicode="?" horiz-adv-x="1046" d="M389 1312q113 52 235 52q128 0 186 -43t58 -129q0 -14 -4 -48q-8 -56 -42.5 -111.5t-83 -100.5t-106 -86.5t-113 -72t-101.5 -53.5t-74 -34l-28 -12l-48 -370h148l46 276l21 9q21 9 53.5 24.5t76 39t90.5 55t94.5 69t90 85t75.5 99t52.5 115t19.5 129.5q0 67 -19.5 120.5 t-63 97.5t-121.5 68.5t-187 24.5q-69 0 -150 -16t-135 -38l-94 -38l57 -142zM201 59q0 47 33 84t78 37q41 0 62.5 -25.5t21.5 -62.5q0 -46 -30.5 -83t-81.5 -37q-35 0 -59 25t-24 62z" />
<glyph unicode="@" horiz-adv-x="1844" d="M1062 1008q-166 0 -300.5 -124.5t-159.5 -309.5q-4 -29 -4 -62q0 -182 180 -182q279 0 388 420l56 238q-2 0 -28.5 5t-64.5 10t-67 5zM146 592q26 184 111 345t207.5 273t276.5 176t315 64q196 0 344.5 -64t234.5 -195t86 -314q0 -58 -9 -121q-19 -135 -67.5 -239.5 t-105 -162.5t-125.5 -94.5t-121 -48t-99 -11.5q-53 1 -75 24.5t-22 67.5q0 18 3 38q3 22 42 166l-10 2q-2 -6 -6 -17t-19.5 -42t-34.5 -59.5t-52 -63t-71 -59.5t-93 -42t-116 -17q-134 0 -210 83.5t-76 228.5q0 38 6 80q13 98 67 194.5t133.5 172.5t185.5 123.5t216 47.5 q47 0 151.5 -16t110.5 -16l36 -110l-154 -668q36 0 71.5 8t82 36t84 73t71 128.5t49.5 194.5q8 53 8 112q0 223 -139 334.5t-389 111.5q-148 0 -280.5 -59.5t-228 -160t-159.5 -232t-84 -276.5q-8 -58 -8 -104q0 -222 146.5 -351t417.5 -129q92 0 175.5 16t137.5 38.5 t94.5 45t58.5 38.5l18 16q44 -66 62 -90q-7 -8 -20.5 -21t-63.5 -46.5t-110 -59.5t-162 -48t-216 -23q-312 0 -498.5 160t-186.5 440q0 59 9 122z" />
<glyph unicode="A" horiz-adv-x="1467" d="M1031 387h-670l-164 -387h-194l704 1574h289l267 -1574h-175zM842 1521l-102 -257l-337 -773h611l-132 781z" />
<glyph unicode="B" horiz-adv-x="1349" d="M683 916q77 0 138.5 7.5t117.5 28t94 52.5t60 84t22 120v36q0 108 -96 150t-344 42h-191l-74 -520h273zM543 144q67 0 118.5 3t109.5 13t100.5 27t83 46.5t66 69.5t41 98t15.5 131q0 143 -98 198.5t-310 55.5h-277l-90 -642h241zM1245 528q0 -123 -38 -216.5t-102.5 -152 t-159 -95t-196 -50.5t-226.5 -14h-423l224 1574h365q319 0 450.5 -68.5t131.5 -235.5q0 -68 -13 -124.5t-33.5 -95.5t-51.5 -71t-61 -51t-67.5 -33.5t-66 -21t-61.5 -11.5q43 -5 83 -15.5t86.5 -35.5t80 -60t56 -93t22.5 -130z" />
<glyph unicode="C" horiz-adv-x="1232" d="M1083 1411q-46 29 -94 38t-115 9q-101 0 -186 -36.5t-143.5 -95t-105 -139t-73.5 -162.5t-45 -171t-24.5 -159.5t-6.5 -132.5q0 -126 26.5 -215.5t77.5 -140t116 -73.5t150 -23q117 0 199 40l162 79l56 -128l-179 -81q-53 -25 -130 -42.5t-150 -17.5q-114 0 -205 33 t-161.5 102t-109 186.5t-38.5 276.5q0 90 10.5 184t37 198.5t66 199t102.5 181.5t142 150.5t188.5 101t237.5 37.5q152 0 262 -67l136 -84l-77 -128z" />
<glyph unicode="D" horiz-adv-x="1477" d="M639 149q95 0 174 33.5t133 87.5t96 129.5t66 153t39.5 164.5t21 157t5.5 138q0 221 -88.5 316t-268.5 95h-333l-178 -1274h333zM1358 1010q0 -77 -7.5 -158t-29 -182.5t-55 -192.5t-91.5 -180t-133 -153.5t-185 -104t-241 -39.5h-513l224 1574h513q518 0 518 -564z" />
<glyph unicode="E" horiz-adv-x="1185" d="M1029 0h-916l224 1574h900l-20 -138h-720l-76 -546h628l-14 -114h-630l-90 -632h732z" />
<glyph unicode="F" horiz-adv-x="1101" d="M420 762l-110 -762h-182l224 1574h899l-20 -138h-717l-78 -558h639l-16 -116h-639z" />
<glyph unicode="G" horiz-adv-x="1366" d="M1074 1415q-84 43 -199 43q-100 0 -185 -34.5t-144 -91.5t-105.5 -135t-74.5 -159.5t-46 -171.5t-24.5 -165t-6.5 -145q0 -235 95 -340.5t273 -105.5q186 0 285.5 79t114.5 198l38 297h-162h-222l20 128h546l-114 -812h-97v171q-5 -9 -14.5 -23t-47.5 -50.5t-83.5 -64 t-125 -50.5t-170.5 -23q-251 0 -386.5 145t-135.5 447q0 91 10.5 185t37 199.5t66.5 200.5t103 182.5t142 151t188.5 101.5t238.5 38q127 0 241 -57l156 -77l-66 -134z" />
<glyph unicode="H" horiz-adv-x="1563" d="M1062 0l110 764h-781l-108 -764h-177l224 1574h175l-98 -696h781l98 696h176l-222 -1574h-178z" />
<glyph unicode="I" horiz-adv-x="833" d="M106 102h192l194 1380h-190l14 92h550l-12 -92h-192l-194 -1380h192l-14 -102h-554z" />
<glyph unicode="J" horiz-adv-x="834" d="M117 -45l37 6q129 30 181 134q35 69 58 236q2 11 8 55l167 1188h175l-161 -1154q-7 -50 -11.5 -79.5t-14.5 -80t-20 -83t-27 -78t-36.5 -76.5t-47.5 -66t-61 -58t-76.5 -42.5t-94.5 -28.5l-46 -8l-118 -25l-27 136z" />
<glyph unicode="K" horiz-adv-x="1273" d="M790 813l-22 -29l16 -28l442 -756h-197l-429 740h-186l-104 -740h-182l224 1574h180l-102 -728h188l573 728h203z" />
<glyph unicode="L" horiz-adv-x="1066" d="M989 0h-876l224 1574h180l-202 -1430h694z" />
<glyph unicode="M" horiz-adv-x="1956" d="M767 0l-197 1188l-45 267l-43 -255l-191 -1200h-178l254 1574h296l214 -1295l21 -137l56 128l584 1305l289 -1l-190 -1574h-176l151 1227l32 240l-93 -207l-568 -1260h-216z" />
<glyph unicode="N" horiz-adv-x="1566" d="M1106 165l-530 1409h-258l-224 -1574l155 -1l201 1428l542 -1427h250l226 1574h-163z" />
<glyph unicode="O" horiz-adv-x="1504" d="M1399 1014q0 -91 -9.5 -184t-34 -198.5t-61.5 -200t-96.5 -182t-134 -150.5t-179 -101t-227.5 -38q-117 0 -208 32.5t-160.5 101.5t-106.5 184.5t-37 273.5q0 91 9.5 184.5t34 199t62 200.5t97 183t134 151.5t179.5 101.5t228 38q114 0 204.5 -33t160 -102.5t107.5 -186 t38 -274.5zM679 110q88 0 163.5 32.5t129 87t96 130t69.5 156.5t44.5 171.5t24.5 171.5t7 159q0 231 -86.5 335.5t-257.5 104.5q-89 0 -165 -32t-130 -85.5t-97 -128t-70 -155t-44.5 -170.5t-24.5 -170t-7 -159q0 -233 88.5 -340.5t259.5 -107.5z" />
<glyph unicode="P" horiz-adv-x="1272" d="M565 784q119 0 204 10.5t156.5 38t114 74.5t66 119.5t23.5 173.5q0 85 -37 135t-132 75.5t-263 25.5h-200l-92 -652h160zM1299 1214q0 -135 -38.5 -236.5t-104 -165.5t-164 -103.5t-206.5 -55t-243 -15.5h-160l-88 -638h-182l224 1574h368q319 0 456.5 -84t137.5 -276z " />
<glyph unicode="Q" horiz-adv-x="1563" d="M853 1458q-90 0 -166.5 -32t-131.5 -85.5t-98.5 -128t-70.5 -155t-45 -170t-25 -170t-7 -159.5q0 -230 89.5 -339t266.5 -109q90 0 166.5 32t131 86t98 128.5t70.5 155t44.5 170.5t24.5 170.5t7 159.5q0 230 -88.5 338t-265.5 108zM1391 1010q0 -75 -7 -155t-26 -176.5 t-48.5 -185t-79 -176.5t-112 -156.5t-152 -119t-195.5 -69.5l292 -283l-108 -113l-318 307l-86 83q-95 12 -170.5 50.5t-134.5 107.5t-91 178.5t-32 253.5q0 89 10 182t34.5 198t62 199.5t98 182.5t136 152t181.5 102t230 38q88 0 163.5 -19.5t141.5 -64t112 -113t72.5 -171 t26.5 -232.5z" />
<glyph unicode="R" horiz-adv-x="1351" d="M1299 1244q0 -102 -32 -183t-80.5 -129t-110 -80t-115 -44t-102.5 -12q170 -20 251 -94.5t81 -215.5q0 -14 -3 -43.5t-3 -44.5l-44 -398h-168l44 412q0 6 3 32.5t3 39.5q0 142 -105.5 196t-350.5 54h-168l-104 -734h-182l224 1574h350q84 0 140 -1.5t126.5 -9 t115.5 -20.5t93 -37.5t75 -59t44.5 -85.5t17.5 -117zM557 862q79 0 137 2.5t122 11.5t109 24t88 41.5t69 63.5t41.5 90t15.5 121q0 51 -13.5 88t-44.5 61t-66 38.5t-95 21.5t-114 9t-139 2h-170l-80 -574h140z" />
<glyph unicode="S" horiz-adv-x="1268" d="M362 148q98 -38 199 -38q96 0 170 20q137 37 199 146q47 74 47 181q0 173 -203 250l-298 106q-117 42 -192 127q-69 79 -69 210q0 205 159.5 332.5t409.5 127.5q144 0 236 -46l154 -77l-68 -137l-145 72q-73 36 -191 36q-169 0 -277 -78.5t-108 -206.5q0 -133 165 -190 l296 -103q127 -46 212 -134q45 -45 69 -109q24 -74 24 -150q0 -92 -27 -171q-78 -262 -369 -334q-88 -22 -229 -22t-247 44l-167 69l59 153z" />
<glyph unicode="T" horiz-adv-x="1045" d="M1185 1436h-424l-202 -1436h-178l204 1436h-430l20 138h1030z" />
<glyph unicode="U" horiz-adv-x="1563" d="M700 100q110 0 188 29.5t138.5 100t99.5 187.5t64 293l124 864h180l-122 -860q-25 -176 -73.5 -309t-111.5 -216.5t-146.5 -136t-170 -72.5t-190.5 -20q-89 0 -160.5 15t-135 52t-106.5 96.5t-67.5 152t-24.5 214.5q0 98 18 224l122 860h178l-120 -864q-22 -172 -22 -242 q0 -203 80 -285.5t258 -82.5z" />
<glyph unicode="V" horiz-adv-x="1256" d="M697 0h-253l-238 1574h164l173 -1158l43 -306l125 303l500 1161h163z" />
<glyph unicode="W" horiz-adv-x="1953" d="M1287 122l40 125l464 1327h162l-552 -1574h-259l-79 1522l-502 -1522h-280l-90 1574h162l75 -1418l3 -89l32 92l454 1415h298l65 -1330z" />
<glyph unicode="X" horiz-adv-x="1268" d="M667 632l-446 -632h-192l560 790l-340 784h188l270 -644l436 644h200l-562 -784l342 -790h-192z" />
<glyph unicode="Y" horiz-adv-x="1173" d="M735 872l404 702h176l-630 -1088l-68 -486h-178l72 516l-318 1058h161l214 -702l61 -207z" />
<glyph unicode="Z" horiz-adv-x="1128" d="M1224 1574l-22 -154l-774 -1030l-192 -246h238h550l-20 -144h-958l24 180l790 1046l163 210h-227h-550l20 138h958z" />
<glyph unicode="[" horiz-adv-x="1188" d="M504 1580h616l-20 -144h-438l-180 -1292h438l-20 -144h-620z" />
<glyph unicode="\" horiz-adv-x="817" d="M285 1730l320 -1869l-146 -29l-323 1875z" />
<glyph unicode="]" horiz-adv-x="1132" d="M337 1580h616l-220 -1580h-620l22 144h438l182 1292h-438z" />
<glyph unicode="^" horiz-adv-x="1324" d="M869 888l44 -200l67 -330h-136l-46 234l-17 84l-56 -95l-137 -223h-158l202 330l124 200h113z" />
<glyph unicode="_" horiz-adv-x="1168" d="M974 -110h-874l20 142h876z" />
<glyph unicode="`" horiz-adv-x="714" d="M480 356h-74l-174 620h242z" />
<glyph unicode="a" horiz-adv-x="1095" d="M1056 1026l-146 -1026h-130l7 196q-56 -103 -146.5 -159.5t-192.5 -56.5q-92 0 -161 33.5t-108.5 92.5t-58.5 132.5t-19 161.5q0 96 27.5 198.5t80.5 197t124.5 169.5t167.5 120t200 45q74 0 162.5 -26t140.5 -52zM263 406q0 -158 55.5 -227t169.5 -69q50 0 99 20.5 t87.5 52.5t66 62t46.5 59l96 656q0 1 -23 11t-66 20.5t-84 10.5q-115 0 -218 -81.5t-166 -220t-63 -294.5z" />
<glyph unicode="b" horiz-adv-x="1134" d="M72 0l231 1639l170 14l-118 -824q44 109 156.5 205t223.5 96q73 0 128 -24.5t88 -64t53.5 -98t27.5 -117.5t7 -132q0 -79 -13 -160t-38.5 -161.5t-67.5 -151t-95 -124.5t-126.5 -85.5t-157.5 -31.5q-193 0 -300 203l-52 -183h-117zM549 110q66 0 120 34t88.5 90.5 t59.5 121.5t38 135t18.5 122.5t5.5 92.5q0 38 -0.5 61.5t-4 58t-9.5 56t-18 46t-29 38t-42.5 23t-58.5 9.5q-51 0 -111 -34t-112 -85t-93 -102t-68 -95l-56 -401q4 -7 11.5 -18.5t34 -41t55.5 -52t75.5 -41t95.5 -18.5z" />
<glyph unicode="c" horiz-adv-x="978" d="M858 928q-24 24 -42 36.5t-56 22.5t-92 10q-84 0 -151 -39t-108 -99.5t-68.5 -140.5t-38 -156t-10.5 -152q0 -300 243 -300q98 0 165 41l95 58l63 -108l-124 -75q-81 -48 -222 -48q-180 0 -281 111t-101 319q0 56 7 117.5t25 133t44.5 137t70 127.5t98 107t131 72.5 t166.5 27.5q162 0 274 -110l56 -55l-86 -93z" />
<glyph unicode="d" horiz-adv-x="1124" d="M101 416q0 94 17.5 190.5t57 191t96 168t141 119t184.5 45.5q52 0 99.5 -18.5t78.5 -45t54.5 -53t34.5 -45.5l10 -18l95 688l170 15l-235 -1653h-113v182q-70 -87 -164.5 -144.5t-189.5 -57.5q-92 0 -159 35.5t-104.5 98.5t-55 138t-17.5 164zM588 998q-74 0 -133.5 -45 t-94.5 -111.5t-58.5 -150t-32 -154t-8.5 -129.5t9 -108t29.5 -94t61.5 -70.5t98 -25.5q49 0 99.5 17.5t88.5 43t69 51t47 42.5l16 18l80 556q-4 7 -11.5 17.5t-33.5 38t-55.5 48.5t-75.5 38.5t-95 17.5z" />
<glyph unicode="e" horiz-adv-x="1013" d="M476 617l-201 -1q50 154 167 267.5t242 115.5q79 1 116 -34.5t37 -94.5q0 -64 -28.5 -113t-79.5 -78.5t-114.5 -44.5t-138.5 -17zM460 517q108 -1 199 19t164 62.5t114.5 117t41.5 174.5q0 99 -79.5 169.5t-213.5 70.5q-114 0 -222.5 -56.5t-190.5 -152t-132 -229.5 t-50 -280q0 -198 95.5 -315.5t274.5 -117.5q53 0 95.5 6.5t79.5 23t51.5 24.5t48.5 29l135 86l-67 102l-106 -70q-108 -70 -207 -70q-137 0 -197.5 96.5t-38.5 309.5z" />
<glyph unicode="f" horiz-adv-x="622" d="M83 -410l200 1412h-158l8 78h161l12 84q18 126 52.5 211.5t84 129t102 60.5t121.5 17q45 0 91.5 -22t71.5 -43.5t25 -26.5l-72 -124q-62 74 -134 74q-51 0 -82 -19.5t-55.5 -80t-39.5 -172.5l-12 -88h306l-9 -78h-308l-200 -1413z" />
<glyph unicode="g" horiz-adv-x="1162" d="M819.5 960q-66.5 48 -156.5 48q-165 1 -233 -84q-57 -65 -58 -164.5t58 -145.5t140 -46q213 -4 280 108q36 57 36 146.5t-66.5 137.5zM498 -294q250 0 336 92q40 43 40 104q0 41 -26 88q-37 67 -238 86l-237 23q-190 -120 -190 -237q0 -82 79.5 -119t235.5 -37zM714 184 q185 -21 256 -120q39 -54 45 -142q6 -85 -28 -156q-49 -104 -207 -150q-156 -47 -315 -46q-185 1 -304.5 71.5t-119.5 186.5q6 102 56.5 162t99.5 90.5t85 49.5l-48 21q-95 41 -93 161q2 123 202 172l109 26q-100 19 -166.5 80.5t-66 164.5t46.5 183q61 119 207 167 q84 29 171 29q156 -3 238 -62l28 -20l77 38q91 42 208 54h17v-154h-253l32 -43q42 -67 42 -129q0 -134 -95 -235q-102 -108 -299 -148l-270 -55q-104 -21 -104 -75q0 -45 41.5 -62.5t95.5 -23.5z" />
<glyph unicode="h" horiz-adv-x="1144" d="M761 0l91 636q13 82 13 155q0 110 -27 159t-100 49q-185 0 -404 -315l-97 -684h-165l232 1638l168 15l-114 -799q169 276 434 276q120 0 183.5 -77t63.5 -216q0 -40 -22 -201l-91 -636h-165z" />
<glyph unicode="i" horiz-adv-x="645" d="M159 0l156 1110h162l-156 -1110h-162zM571 1452q0 -58 -41 -104t-91 -46q-44 0 -72 31t-28 77q0 57 41.5 102.5t94.5 45.5q42 0 69 -31t27 -75z" />
<glyph unicode="j" horiz-adv-x="613" d="M369 1110h168l-137 -954q-31 -215 -129.5 -354.5t-227.5 -173.5l-24 114q59 40 96.5 81t61 97t35 108.5t24.5 143.5zM625 1452q0 -58 -41 -104t-91 -46q-44 0 -72 31t-28 77q0 57 41.5 102.5t94.5 45.5q42 0 69 -31t27 -75z" />
<glyph unicode="k" horiz-adv-x="1008" d="M524 602l548 508h-192l-556 -514l147 1057l-168 -14l-231 -1639h165l63 428l120 96l336 -524h158z" />
<glyph unicode="l" horiz-adv-x="588" d="M168 0l231 1638l168 15l-234 -1653h-165z" />
<glyph unicode="m" horiz-adv-x="1732" d="M981 682l-98 -682h-162l104 724q9 60 9 108q0 82 -27 124t-99 42q-95 0 -195 -83.5t-179 -230.5l-97 -684h-165l158 1110h122v-261q71 143 176.5 212t217.5 69q244 0 247 -290q31 80 79 139t101.5 90.5t104.5 46t101 14.5q122 0 185 -77t63 -221q0 -46 -8 -100l-105 -732 h-165l104 728q8 61 8 106q0 82 -26.5 123t-97.5 41q-97 0 -191.5 -75t-164.5 -241z" />
<glyph unicode="n" horiz-adv-x="1144" d="M761 0l91 636q13 82 13 155q0 110 -27 159t-100 49q-185 0 -403 -314l-98 -685h-165l158 1110h122v-261q173 281 444 281q120 0 181.5 -76.5t61.5 -216.5q0 -32 -23 -201l-90 -636h-165z" />
<glyph unicode="o" horiz-adv-x="1126" d="M638 998q-71 0 -130.5 -28.5t-99 -77t-69 -107.5t-45.5 -125t-23.5 -124t-7.5 -110q0 -150 60.5 -233t181.5 -83q71 0 129 28.5t96.5 77t66.5 106.5t43 125t22 124.5t7 110.5q0 316 -231 316zM101 426q0 69 12 143t36.5 155t68 152t101.5 129t143 91.5t185 33.5 q102 0 177.5 -35.5t120 -98.5t65.5 -142t21 -174q0 -103 -21 -202.5t-65.5 -190t-108 -159t-154 -109t-197.5 -40.5q-101 0 -176.5 35t-120 97.5t-66 141t-21.5 173.5z" />
<glyph unicode="p" horiz-adv-x="1133" d="M171 -410h-167l216 1520h121l-1 -280q61 127 176 213.5t217 86.5q73 0 127.5 -24.5t87 -63.5t52 -98t26 -117t6.5 -131q0 -93 -17.5 -189.5t-56.5 -192t-95 -169t-140.5 -119.5t-184.5 -46q-87 0 -164.5 52t-122.5 130zM872 706q0 39 -0.5 63t-4 58.5t-10 56t-18.5 45.5 t-29 37.5t-42.5 22.5t-58.5 9q-51 0 -110 -32.5t-111 -83t-93 -101t-71 -97.5l-57 -411q5 -7 13.5 -18t37.5 -39t60.5 -49.5t79.5 -39t97 -17.5q103 0 177 91t107 223t33 282z" />
<glyph unicode="q" horiz-adv-x="1108" d="M101 418q0 88 16.5 181.5t54.5 189.5t93 171t139.5 122.5t186.5 47.5q58 0 110.5 -22t85.5 -53t58 -62t35 -53l11 -22l58 192h118l-226 -1590l-168 -22l95 663q-65 -78 -154.5 -129.5t-176.5 -51.5q-73 0 -131.5 24.5t-96 65t-62.5 97.5t-35.5 119t-10.5 132zM784 276 l76 546l-14 19q-9 12 -38.5 42.5t-61 53.5t-79 42t-94.5 19q-238 0 -300 -442q-12 -92 -12 -148q0 -46 5.5 -86.5t19 -80.5t35.5 -68t57 -45.5t81 -17.5q49 0 100.5 17t90 41.5t70 49t48.5 41.5z" />
<glyph unicode="r" horiz-adv-x="742" d="M729 1130q27 0 48 -3t29 -6l7 -3l-22 -155q-26 7 -56 7q-51 0 -107.5 -24.5t-100 -59.5t-79.5 -70t-56 -60l-19 -24l-103 -732h-165l157 1110h125v-261q66 124 165.5 202.5t176.5 78.5z" />
<glyph unicode="s" horiz-adv-x="919" d="M713 949q-73 49 -176 49q-118 0 -172.5 -54t-54.5 -122q0 -48 26 -72q27 -23 99 -56l128 -59q70 -34 110.5 -58.5t76 -58.5t50.5 -74.5t15 -94.5q0 -51 -11 -99.5t-39.5 -99t-72.5 -87.5t-117 -61t-166 -24q-77 0 -139 14q-60 13 -123 50l-91 54l80 112l72 -42 q96 -56 213 -56q60 0 105.5 16.5t70 40.5t40 56.5t20 58t4.5 51.5q0 52 -30 84q-31 33 -113 68l-137 58q-69 28 -114.5 61t-66.5 69t-28.5 66t-7.5 66q0 157 105 241.5t266 84.5q147 0 241 -59l96 -60l-80 -116z" />
<glyph unicode="t" horiz-adv-x="780" d="M533 158q-38 -25 -66 -32.5t-65 -7.5q-30 0 -49 27t-19 65q0 43 11 121l97 671h256l12 78h-257l73 522l-169 -46l-68 -476h-155l-10 -78h154l-95 -652q-12 -82 -12 -126q0 -112 58.5 -176t153.5 -64q61 0 105 14.5t109 53.5l95 58l-72 104z" />
<glyph unicode="u" horiz-adv-x="1120" d="M1079 1110l-157 -1110h-129l6 214q-134 -234 -374 -234q-148 0 -236.5 81.5t-88.5 244.5q0 35 11 108l100 696h163l-97 -682q-9 -68 -9 -108q0 -101 50 -155.5t135 -54.5q55 0 111.5 20t97 48t73 56.5t49.5 48.5l16 20l115 807h164z" />
<glyph unicode="v" horiz-adv-x="944" d="M432 254l377 856h172l-496 -1110h-192l-187 1110h158l139 -852l8 -52z" />
<glyph unicode="w" horiz-adv-x="1417" d="M959 196l337 914h164l-445 -1110h-198l-56 890l-3 65l-19 -51l-324 -904h-187l-115 1110h154l72 -904l6 -71l25 71l321 904h174l67 -911l5 -64z" />
<glyph unicode="x" horiz-adv-x="975" d="M526 708l286 402h178l-401 -524l-23 -30l17 -36l259 -520h-176l-174 408l-10 24h-4l-19 -28l-293 -404h-182l410 532l18 24l-18 36l-256 518h166l178 -398l18 -44z" />
<glyph unicode="y" horiz-adv-x="977" d="M116 -303q70 20 114.5 84.5t110.5 218.5l-232 1110h174l129 -638q44 -222 44 -230l68 166l297 702h174l-506 -1110q-8 -18 -26 -64l-33 -82q-15 -37 -43 -85.5t-57.5 -84t-75 -67t-97.5 -44.5l-122 -31l-28 124z" />
<glyph unicode="z" horiz-adv-x="893" d="M881 1110l-22 -164l-336 -414l-314 -386h166h370l-20 -146h-684l20 164l372 456l286 354h-170h-348l20 136h660z" />
<glyph unicode="{" horiz-adv-x="914" d="M552 1002q11 76 24.5 130.5t33 90.5t39 57.5t49 32.5t56 14t67.5 3l23 169q-64 0 -116 -10.5t-108 -41t-97 -81.5t-75 -137t-50 -202q-40 -288 -169 -288l-27 -189q129 0 89 -288q-10 -73 -10.5 -134.5t9 -107.5t25 -82.5t40 -61t51 -42t60.5 -27t67 -13.5t71 -4l25 169 q-41 0 -66.5 3t-52 14t-40 32.5t-22.5 57.5t-7.5 90.5t12.5 130.5q22 158 -16.5 244t-103.5 114q176 63 219 357z" />
<glyph unicode="|" horiz-adv-x="548" d="M152 -110l254 1806h166l-254 -1806h-166z" />
<glyph unicode="}" horiz-adv-x="904" d="M517 1002q14 90 14 151.5t-9.5 96.5t-35 53t-52.5 22.5t-73 4.5l27 169q41 0 75.5 -5t69.5 -19t60.5 -36t46.5 -58.5t31.5 -85t10 -116.5t-13.5 -152q-45 -288 74 -288l-29 -189q-120 0 -165 -288q-18 -116 -51.5 -202t-73.5 -137t-92.5 -81.5t-101 -41t-107.5 -10.5 l25 169q38 0 62.5 3t52.5 14t46.5 32.5t37.5 57.5t33 90.5t26 130.5q13 83 37.5 149t55.5 107t60.5 65.5t60.5 36.5q-147 63 -102 357z" />
<glyph unicode="~" horiz-adv-x="708" d="M284 1534q42 0 88.5 -19.5t79 -42.5t70 -42.5t64.5 -19.5q33 0 48 29.5t22 80.5h146q0 -1 -1 -3t-1 -3q-31 -228 -190 -244q-4 0 -12 -1t-12 -1q-56 0 -119.5 30t-114.5 60t-76 30q-33 0 -48 -29.5t-22 -84.5h-146v6q35 254 224 254z" />
<glyph unicode="&#xa2;" horiz-adv-x="1050" d="M542 -20q-188 5 -295 124t-107 336q0 68 10 138q22 156 76.5 275t131 191t165.5 108t189 38l16 108h100l-16 -114q60 -7 112 -22.5t74 -27.5l22 -12l4 -144q-10 6 -28 14.5t-79 26t-127 23.5l-128 -920q65 5 128 21.5t94 30.5l30 14l-46 -150q-88 -42 -226 -56l-18 -118 h-98zM564 122l128 924q-154 -6 -246 -118.5t-126 -349.5q-11 -72 -11 -142q0 -154 65 -229.5t190 -84.5z" />
<glyph unicode="&#xa3;" horiz-adv-x="1140" d="M681 1322q-109 0 -206 -59t-154.5 -153.5t-57.5 -197.5q0 -20 2.5 -41t6.5 -39t9.5 -35.5t11.5 -31.5l12 -27q6 -13 11 -22.5t10 -15.5l6 -10q3 -4 3 -3h-160l-16 -111h183q-12 -83 -36 -157.5t-47 -119t-52.5 -85t-41 -52.5t-24.5 -23l-2 -2l-13 -137h745l18 134h-591 q6 5 16 16t38 50.5t51.5 86t48.5 124.5t37 165h398l16 111h-415q-8 11 -20 31t-32.5 78.5t-20.5 111.5q0 52 15 98.5t47 86.5t89 63.5t134 23.5q44 0 91.5 -12.5t84 -30.5t66.5 -36t46 -31l17 -12l65 131l-14 13q-13 12 -44.5 32.5t-74.5 40t-111 33.5t-145 14z" />
<glyph unicode="&#xa5;" horiz-adv-x="1143" d="M629 848l472 731h162l-533 -832h253l-18 -131h-276l-18 -130h276l-19 -131h-275l-50 -355h-177l50 355h-281l19 131h281l18 130h-281l18 131h259l-299 832h162z" />
<glyph unicode="&#xa9;" horiz-adv-x="1854" d="M1584 794q8 58 8 109q0 117 -36.5 222t-104 187t-174 130t-237.5 48q-135 0 -262.5 -54.5t-226 -147t-166.5 -221.5t-89 -273q-8 -53 -8 -116q0 -254 153.5 -416t404.5 -162q130 0 254 50.5t223.5 140t169 220.5t91.5 283zM1716 794q-25 -181 -113 -336t-211 -257.5 t-270.5 -160.5t-295.5 -58q-193 0 -346 87.5t-238 243.5t-85 353q0 62 9 128q24 170 107 322t202.5 260t270.5 171t308 63q154 0 282 -56.5t212 -152.5t130.5 -221.5t46.5 -265.5q0 -60 -9 -120zM1164 468l-24 -116q-144 -72 -260 -72q-98 0 -170.5 32t-114 88.5t-61.5 127 t-20 154.5q0 51 8 112q31 230 163 372t339 142q56 0 115 -15t89 -28t38 -19l-8 -112q-11 6 -32 15.5t-85 25t-127 15.5q-82 0 -146 -30.5t-105 -86.5t-66 -124.5t-37 -154.5q-9 -62 -9 -117q0 -277 251 -277q126 0 262 68z" />
<glyph unicode="&#xad;" d="M704 508h-546l18 130h546z" />
<glyph unicode="&#xae;" horiz-adv-x="1262" d="M658 1146h50q68 0 101 24t41 76q1 6 1 18q0 39 -36.5 51.5t-132.5 12.5zM812 1016l86 -160l-96 -48q-4 8 -48.5 116t-63.5 148h-44l-36 -242h-92l82 572h102q127 0 183.5 -31.5t56.5 -99.5q0 -9 -2 -27q-10 -69 -55.5 -106.5t-120.5 -55.5q7 -8 26 -35t22 -31zM216 1108 q20 143 104.5 264t211 190.5t264.5 69.5q193 0 316 -127t123 -320q0 -45 -5 -77q-20 -144 -103.5 -264.5t-210 -190t-266.5 -69.5q-190 0 -314.5 128t-124.5 320q0 44 5 76zM310 1106q-5 -38 -5 -67q0 -159 100 -261t257 -102q115 0 217.5 55.5t171 154.5t85.5 220 q5 38 5 66q0 160 -100.5 263t-258.5 103q-174 0 -310.5 -124t-161.5 -308z" />
<glyph unicode="&#xb4;" horiz-adv-x="739" d="M366 352h-132l191 622h240z" />
<glyph unicode="&#x2000;" horiz-adv-x="865" />
<glyph unicode="&#x2001;" horiz-adv-x="1730" />
<glyph unicode="&#x2002;" horiz-adv-x="865" />
<glyph unicode="&#x2003;" horiz-adv-x="1730" />
<glyph unicode="&#x2004;" horiz-adv-x="576" />
<glyph unicode="&#x2005;" horiz-adv-x="432" />
<glyph unicode="&#x2006;" horiz-adv-x="288" />
<glyph unicode="&#x2007;" horiz-adv-x="288" />
<glyph unicode="&#x2008;" horiz-adv-x="216" />
<glyph unicode="&#x2009;" horiz-adv-x="346" />
<glyph unicode="&#x200a;" horiz-adv-x="96" />
<glyph unicode="&#x2010;" d="M704 508h-546l18 130h546z" />
<glyph unicode="&#x2011;" d="M704 508h-546l18 130h546z" />
<glyph unicode="&#x2013;" horiz-adv-x="1024" d="M158 508v130h792v-130h-792z" />
<glyph unicode="&#x2014;" horiz-adv-x="2048" d="M158 508v130h1816v-130h-1816z" />
<glyph unicode="&#x2018;" horiz-adv-x="714" d="M480 356h-74l-174 620h242z" />
<glyph unicode="&#x2019;" horiz-adv-x="515" d="M516 1572h-240l-29 -542h98z" />
<glyph unicode="&#x201c;" horiz-adv-x="876" d="M496 1393l-41 -293h-245l20 291q4 56 23 98t54 71.5t76 49t100 36.5l35 -94q-73 -26 -103.5 -60.5t-39.5 -98.5h121zM850 1393l-41 -293h-245l20 291q4 56 23 98t54 71.5t76 49t100 36.5l35 -94q-73 -26 -103.5 -60.5t-39.5 -98.5h121z" />
<glyph unicode="&#x201d;" horiz-adv-x="842" d="M232 1289l41 293h245l-20 -291q-4 -56 -23 -98t-54 -71.5t-76 -49t-100 -36.5l-35 94q73 26 103.5 60.5t39.5 98.5h-121zM586 1289l41 293h245l-20 -291q-4 -56 -23 -98t-54 -71.5t-76 -49t-100 -36.5l-35 94q73 26 103.5 60.5t39.5 98.5h-121z" />
<glyph unicode="&#x2022;" horiz-adv-x="1210" d="M327 643q0 100 52 189t139 142.5t184 53.5q122 0 201.5 -82t79.5 -205q0 -151 -112.5 -267t-262.5 -116q-122 0 -201.5 81.5t-79.5 203.5z" />
<glyph unicode="&#x2026;" horiz-adv-x="1422" d="M1276 129q0 -58 -41 -104t-91 -46q-44 0 -72 31t-28 77q0 57 41 102.5t95 45.5q41 0 68.5 -31t27.5 -75zM802 129q0 -58 -41 -104t-91 -46q-44 0 -72 31t-28 77q0 57 41 102.5t95 45.5q41 0 68.5 -31t27.5 -75zM328 129q0 -58 -41 -104t-91 -46q-44 0 -72 31t-28 77 q0 57 41 102.5t95 45.5q41 0 68.5 -31t27.5 -75z" />
<glyph unicode="&#x202f;" horiz-adv-x="346" />
<glyph unicode="&#x205f;" horiz-adv-x="432" />
<glyph unicode="&#x20ac;" horiz-adv-x="1107" d="M882 1439q76 0 144.5 -15.5t99.5 -31.5l30 -16l-57 -122q-12 6 -33 15t-83.5 24t-122.5 15q-151 0 -245.5 -97t-119.5 -280h367l-18 -122h-376q-4 -14 -21 -113h328l-18 -122h-329q-18 -109 -10 -189t29 -134.5t57 -87.5t74 -47t81 -14q66 0 135 19t105 38l36 19l31 -123 l-2 -1q-15 -9 -34.5 -19t-66 -29t-112.5 -31t-138 -13q-61 -1 -117 23t-103 73t-78 122t-43.5 171.5t0.5 222.5h-153l18 122h148q1 7 8.5 50.5t11.5 62.5h-168l18 122h189q47 237 183 372t355 136z" />
<glyph unicode="&#x2122;" horiz-adv-x="1599" d="M655 1310h-195l-96 -686h-125l96 686h-195l14 103h515zM1064 758l263 655h213l-111 -789h-118l93 664l-276 -664h-166l-89 664l-93 -664h-119l111 789h213z" />
</font>
</defs>
</svg>
